%
M48
M72
T01C0.0118
T02C0.0197
T03C0.0315
T04C0.0394
T05C0.0400
%
T01
X3373Y1950
X3373Y2934
X3570Y4509
X5932Y4804
X5932Y5493
X6129Y6478
X8688Y6674
X9869Y6478
X9180Y5789
X9515Y5297
X8983Y5001
X10578Y5060
X11405Y5454
X11759Y5730
X12507Y6084
X13885Y5769
X15834Y5533
X15381Y4588
X14790Y4608
X14495Y4371
X14003Y4509
X14751Y3958
X14003Y3643
X14633Y3564
X15204Y3426
X15302Y3052
X15775Y3407
X15538Y3919
X14200Y3052
X14554Y2541
X11838Y3328
X11523Y3131
X11168Y3289
X10381Y3407
X9633Y3289
X9633Y3682
X8845Y3564
X11090Y2462
X11641Y2580
X12743Y4155
X11562Y4588
X11916Y4804
X10853Y5690
X11208Y7856
X4751Y8249
X3570Y8840
X2979Y8249
X17428Y2737
X18924Y2541
X18924Y3131
X17743Y8249
X19121Y9037
T02
X17546Y7659
X15971Y7659
X14397Y7659
X14397Y7068
X12822Y7659
X10066Y7068
X8097Y7659
X7192Y6950
X6129Y6950
X4160Y7068
X12920Y1556
X12979Y1045
X14239Y1359
X15775Y769
X17546Y1359
X8097Y1359
X4554Y769
T03
X2586Y1556
X2586Y2344
X2586Y3131
X2586Y3919
X2586Y6281
X2586Y7068
X2586Y7856
X2586Y8643
X19908Y8643
X19908Y7856
X19908Y7068
X19908Y6281
X19908Y3919
X19908Y3131
X19908Y2344
X19908Y1556
T04
X11641Y769
X10656Y769
T05
X10086Y2265
X13412Y3525
X13412Y4509
X13412Y5493
X13412Y6478
X16365Y6478
X17349Y6478
X17349Y5493
X16365Y5493
X16365Y4509
X17349Y4509
X17349Y3525
X16365Y3525
X8326Y4115
X7326Y4115
X6326Y4115
X5326Y4115
X4326Y4115
X10853Y9037
M30
