G75*
%MOIN*%
%OFA0B0*%
%FSLAX24Y24*%
%IPPOS*%
%LPD*%
%AMOC8*
5,1,8,0,0,1.08239X$1,22.5*
%
%ADD10C,0.1600*%
%ADD11C,0.0600*%
%ADD12OC8,0.0595*%
%ADD13C,0.0680*%
%ADD14OC8,0.0680*%
%ADD15C,0.0358*%
%ADD16C,0.0437*%
%ADD17C,0.0671*%
D10*
X006326Y001556D03*
D11*
X003727Y005493D03*
X004554Y005690D03*
D12*
X002586Y001556D03*
X002586Y002344D03*
X002586Y003131D03*
X002586Y003919D03*
X002586Y006281D03*
X002586Y007068D03*
X002586Y007856D03*
X002586Y008643D03*
X019908Y008643D03*
X019908Y007856D03*
X019908Y007068D03*
X019908Y006281D03*
X019908Y003919D03*
X019908Y003131D03*
X019908Y002344D03*
X019908Y001556D03*
D13*
X008326Y003815D02*
X008326Y004415D01*
X007326Y004415D02*
X007326Y003815D01*
X006326Y003815D02*
X006326Y004415D01*
X005326Y004415D02*
X005326Y003815D01*
X004326Y003815D02*
X004326Y004415D01*
D14*
X010086Y002265D03*
X013412Y003525D03*
X013412Y004509D03*
X013412Y005493D03*
X013412Y006478D03*
X016365Y006478D03*
X017349Y006478D03*
X017349Y005493D03*
X016365Y005493D03*
X016365Y004509D03*
X017349Y004509D03*
X017349Y003525D03*
X016365Y003525D03*
X010853Y009037D03*
D15*
X011208Y007856D03*
X008688Y006674D03*
X009869Y006478D03*
X009180Y005789D03*
X009515Y005297D03*
X008983Y005001D03*
X010578Y005060D03*
X011405Y005454D03*
X011759Y005730D03*
X012507Y006084D03*
X013885Y005769D03*
X015834Y005533D03*
X015381Y004588D03*
X014790Y004608D03*
X014495Y004371D03*
X014003Y004509D03*
X014751Y003958D03*
X014003Y003643D03*
X014633Y003564D03*
X015204Y003426D03*
X015302Y003052D03*
X015775Y003407D03*
X015538Y003919D03*
X014200Y003052D03*
X014554Y002541D03*
X011838Y003328D03*
X011523Y003131D03*
X011168Y003289D03*
X010381Y003407D03*
X009633Y003289D03*
X009633Y003682D03*
X008845Y003564D03*
X011090Y002462D03*
X011641Y002580D03*
X012743Y004155D03*
X011562Y004588D03*
X011916Y004804D03*
X010853Y005690D03*
X006129Y006478D03*
X005932Y005493D03*
X005932Y004804D03*
X003570Y004509D03*
X003373Y002934D03*
X003373Y001950D03*
X002979Y008249D03*
X003570Y008840D03*
X004751Y008249D03*
X017428Y002737D03*
X018924Y002541D03*
X018924Y003131D03*
X017743Y008249D03*
X019121Y009037D03*
D16*
X017546Y007659D03*
X015971Y007659D03*
X014397Y007659D03*
X014397Y007068D03*
X012822Y007659D03*
X010066Y007068D03*
X008097Y007659D03*
X007192Y006950D03*
X006129Y006950D03*
X004160Y007068D03*
X012920Y001556D03*
X012979Y001045D03*
X014239Y001359D03*
X015775Y000769D03*
X017546Y001359D03*
X008097Y001359D03*
X004554Y000769D03*
D17*
X010656Y000769D03*
X011641Y000769D03*
M02*
