G75*
%MOIN*%
%OFA0B0*%
%FSLAX24Y24*%
%IPPOS*%
%LPD*%
%AMOC8*
5,1,8,0,0,1.08239X$1,22.5*
%
%ADD10R,0.0787X0.0433*%
%ADD11R,0.0315X0.0315*%
%ADD12R,0.0630X0.0118*%
%ADD13R,0.0118X0.0630*%
%ADD14OC8,0.0515*%
%ADD15C,0.0600*%
%ADD16R,0.0433X0.0394*%
%ADD17R,0.0551X0.0394*%
%ADD18R,0.0236X0.0354*%
%ADD19R,0.0394X0.0433*%
%ADD20OC8,0.0600*%
%ADD21C,0.0160*%
%ADD22C,0.0120*%
%ADD23C,0.0278*%
%ADD24C,0.0100*%
%ADD25C,0.0320*%
%ADD26C,0.0357*%
%ADD27C,0.0591*%
D10*
X004160Y001281D03*
X004160Y001950D03*
X004160Y002619D03*
X005735Y002619D03*
X005735Y001950D03*
X005735Y001281D03*
X007310Y001281D03*
X007310Y001950D03*
X007310Y002619D03*
X008885Y002619D03*
X008885Y001950D03*
X008885Y001281D03*
X013609Y001281D03*
X013609Y001950D03*
X013609Y002619D03*
X015184Y002619D03*
X015184Y001950D03*
X015184Y001281D03*
X016759Y001281D03*
X016759Y001950D03*
X016759Y002619D03*
X018334Y002619D03*
X018334Y001950D03*
X018334Y001281D03*
X018334Y007580D03*
X018334Y008249D03*
X018334Y008919D03*
X016759Y008919D03*
X016759Y008249D03*
X016759Y007580D03*
X015184Y007580D03*
X015184Y008249D03*
X015184Y008919D03*
X013609Y008919D03*
X013609Y008249D03*
X013609Y007580D03*
X008885Y007580D03*
X008885Y008249D03*
X008885Y008919D03*
X007310Y008919D03*
X007310Y008249D03*
X007310Y007580D03*
X005735Y007580D03*
X005735Y008249D03*
X005735Y008919D03*
X004160Y008919D03*
X004160Y008249D03*
X004160Y007580D03*
D11*
G36*
X014227Y006475D02*
X014449Y006253D01*
X014227Y006031D01*
X014005Y006253D01*
X014227Y006475D01*
G37*
G36*
X014645Y006058D02*
X014867Y005836D01*
X014645Y005614D01*
X014423Y005836D01*
X014645Y006058D01*
G37*
G36*
X015355Y005836D02*
X015133Y005614D01*
X014911Y005836D01*
X015133Y006058D01*
X015355Y005836D01*
G37*
G36*
X015772Y006253D02*
X015550Y006031D01*
X015328Y006253D01*
X015550Y006475D01*
X015772Y006253D01*
G37*
G36*
X015133Y005126D02*
X014911Y005348D01*
X015133Y005570D01*
X015355Y005348D01*
X015133Y005126D01*
G37*
G36*
X015550Y004708D02*
X015328Y004930D01*
X015550Y005152D01*
X015772Y004930D01*
X015550Y004708D01*
G37*
G36*
X014423Y005348D02*
X014645Y005570D01*
X014867Y005348D01*
X014645Y005126D01*
X014423Y005348D01*
G37*
G36*
X014005Y004930D02*
X014227Y005152D01*
X014449Y004930D01*
X014227Y004708D01*
X014005Y004930D01*
G37*
D12*
X012468Y005001D03*
X012468Y004804D03*
X012468Y004608D03*
X012468Y004411D03*
X012468Y005198D03*
X012468Y005395D03*
X012468Y005592D03*
X012468Y005789D03*
X010027Y005789D03*
X010027Y005592D03*
X010027Y005395D03*
X010027Y005198D03*
X010027Y005001D03*
X010027Y004804D03*
X010027Y004608D03*
X010027Y004411D03*
D13*
X010558Y003879D03*
X010755Y003879D03*
X010952Y003879D03*
X011149Y003879D03*
X011345Y003879D03*
X011542Y003879D03*
X011739Y003879D03*
X011936Y003879D03*
X011936Y006320D03*
X011739Y006320D03*
X011542Y006320D03*
X011345Y006320D03*
X011149Y006320D03*
X010952Y006320D03*
X010755Y006320D03*
X010558Y006320D03*
D14*
X002586Y006281D03*
X002586Y007068D03*
X002586Y007856D03*
X002586Y008643D03*
X002586Y003919D03*
X002586Y003131D03*
X002586Y002344D03*
X002586Y001556D03*
X019908Y001556D03*
X019908Y002344D03*
X019908Y003131D03*
X019908Y003919D03*
X019908Y006281D03*
X019908Y007068D03*
X019908Y007856D03*
X019908Y008643D03*
D15*
X008326Y004415D02*
X008326Y003815D01*
X007326Y003815D02*
X007326Y004415D01*
X006326Y004415D02*
X006326Y003815D01*
X005326Y003815D02*
X005326Y004415D01*
X004326Y004415D02*
X004326Y003815D01*
D16*
G36*
X009334Y006254D02*
X009029Y005949D01*
X008750Y006228D01*
X009055Y006533D01*
X009334Y006254D01*
G37*
G36*
X009807Y006727D02*
X009502Y006422D01*
X009223Y006701D01*
X009528Y007006D01*
X009807Y006727D01*
G37*
X012428Y006537D03*
X012428Y007206D03*
X019731Y005100D03*
X020401Y005100D03*
G36*
X018988Y001235D02*
X019063Y001659D01*
X019450Y001591D01*
X019375Y001167D01*
X018988Y001235D01*
G37*
G36*
X018871Y000576D02*
X018946Y001000D01*
X019333Y000932D01*
X019258Y000508D01*
X018871Y000576D01*
G37*
X012113Y002009D03*
X012113Y002678D03*
G36*
X003722Y006410D02*
X003317Y006263D01*
X003182Y006632D01*
X003587Y006779D01*
X003722Y006410D01*
G37*
G36*
X004351Y006639D02*
X003946Y006492D01*
X003811Y006861D01*
X004216Y007008D01*
X004351Y006639D01*
G37*
D17*
X007271Y005887D03*
X008137Y005513D03*
X008137Y006261D03*
D18*
G36*
X005406Y005659D02*
X005637Y005700D01*
X005698Y005353D01*
X005467Y005312D01*
X005406Y005659D01*
G37*
G36*
X005038Y005594D02*
X005269Y005635D01*
X005330Y005288D01*
X005099Y005247D01*
X005038Y005594D01*
G37*
G36*
X004670Y005529D02*
X004901Y005570D01*
X004962Y005223D01*
X004731Y005182D01*
X004670Y005529D01*
G37*
G36*
X004512Y006421D02*
X004743Y006462D01*
X004804Y006115D01*
X004573Y006074D01*
X004512Y006421D01*
G37*
G36*
X004881Y006486D02*
X005112Y006527D01*
X005173Y006180D01*
X004942Y006139D01*
X004881Y006486D01*
G37*
G36*
X005249Y006551D02*
X005480Y006592D01*
X005541Y006245D01*
X005310Y006204D01*
X005249Y006551D01*
G37*
D19*
X006424Y005926D03*
X006424Y005257D03*
X004338Y005100D03*
X003668Y005100D03*
X009082Y004647D03*
X009082Y003978D03*
X012664Y003466D03*
X012664Y002797D03*
G36*
X012370Y001774D02*
X012505Y001405D01*
X012100Y001258D01*
X011965Y001627D01*
X012370Y001774D01*
G37*
G36*
X012599Y001146D02*
X012734Y000777D01*
X012329Y000630D01*
X012194Y000999D01*
X012599Y001146D01*
G37*
X011897Y008249D03*
X011227Y008249D03*
G36*
X012415Y008699D02*
X012280Y009068D01*
X012685Y009215D01*
X012820Y008846D01*
X012415Y008699D01*
G37*
G36*
X012644Y008070D02*
X012509Y008439D01*
X012914Y008586D01*
X013049Y008217D01*
X012644Y008070D01*
G37*
D20*
X010853Y009037D03*
X013412Y006478D03*
X013412Y005493D03*
X013412Y004509D03*
X013412Y003525D03*
X016365Y003525D03*
X017349Y003525D03*
X017349Y004509D03*
X016365Y004509D03*
X016365Y005493D03*
X017349Y005493D03*
X017349Y006478D03*
X016365Y006478D03*
X010086Y002265D03*
D21*
X007310Y001950D02*
X005735Y001950D01*
X005735Y002619D02*
X007310Y002619D01*
X006326Y004115D02*
X006326Y005100D01*
X007901Y005100D01*
X008097Y005297D01*
X008097Y005474D01*
X008137Y005513D01*
X006326Y005100D02*
X004948Y005100D01*
X004771Y005277D01*
X004816Y005376D01*
X005184Y005441D02*
X005027Y006333D01*
X005395Y006398D01*
X005552Y005506D02*
X005184Y005441D01*
X005735Y008249D02*
X007310Y008249D01*
X007310Y008919D02*
X005735Y008919D01*
X014645Y005836D02*
X014889Y005592D01*
X015133Y005836D01*
X014889Y005592D02*
X014889Y005592D01*
X015133Y005348D01*
X014889Y005592D02*
X014645Y005348D01*
X015184Y002619D02*
X016759Y002619D01*
X016759Y001950D02*
X015184Y001950D01*
X015184Y008249D02*
X016759Y008249D01*
X016759Y008919D02*
X015184Y008919D01*
D22*
X013609Y008919D02*
X013590Y008919D01*
X013019Y008249D02*
X012779Y008328D01*
X013019Y008249D02*
X013609Y008249D01*
X012550Y008957D02*
X011995Y008958D01*
X011995Y009627D01*
X011719Y009627D02*
X011719Y009234D01*
X011719Y008919D01*
X011444Y008919D02*
X011444Y009234D01*
X011719Y009234D01*
X011444Y009234D02*
X011444Y009627D01*
X011247Y009627D02*
X010263Y009627D01*
X010263Y008879D01*
X010460Y008722D01*
X010696Y008564D01*
X010932Y008328D01*
X011227Y008249D01*
X011208Y007856D01*
X011562Y007934D02*
X011562Y008525D01*
X011247Y008879D01*
X009574Y008249D02*
X008885Y008249D01*
X008885Y008919D02*
X009101Y008919D01*
X011345Y007265D02*
X011345Y006320D01*
X011149Y006320D02*
X011149Y006871D01*
X010952Y006871D02*
X010952Y006320D01*
X010558Y006320D02*
X010027Y006320D01*
X009869Y006478D01*
X009752Y006478D01*
X009515Y006714D01*
X010952Y006871D02*
X010950Y006943D01*
X010944Y007015D01*
X010935Y007087D01*
X010922Y007158D01*
X010905Y007228D01*
X010885Y007297D01*
X010860Y007365D01*
X010833Y007431D01*
X010802Y007497D01*
X010767Y007560D01*
X010730Y007622D01*
X010689Y007681D01*
X010645Y007738D01*
X010598Y007793D01*
X010548Y007845D01*
X010496Y007895D01*
X010441Y007942D01*
X010384Y007986D01*
X010325Y008027D01*
X010263Y008064D01*
X010200Y008099D01*
X010134Y008130D01*
X010068Y008157D01*
X010000Y008182D01*
X009931Y008202D01*
X009861Y008219D01*
X009790Y008232D01*
X009718Y008241D01*
X009646Y008247D01*
X009574Y008249D01*
X011739Y006970D02*
X011739Y006320D01*
X011542Y006320D02*
X011542Y006871D01*
X012152Y006163D02*
X012187Y006140D01*
X012224Y006121D01*
X012262Y006104D01*
X012301Y006092D01*
X012342Y006083D01*
X012383Y006078D01*
X012424Y006076D01*
X012466Y006078D01*
X012507Y006084D01*
X012153Y006163D02*
X011936Y006320D01*
X011818Y005789D02*
X012468Y005789D01*
X012468Y005592D02*
X012054Y005592D01*
X011916Y005454D01*
X011405Y005454D01*
X011129Y005415D02*
X010853Y005690D01*
X010755Y005789D01*
X010027Y005789D01*
X009180Y005789D01*
X008885Y006084D01*
X009042Y006241D01*
X008885Y006084D02*
X008688Y006281D01*
X008688Y006674D01*
X009101Y008918D02*
X009190Y008916D01*
X009279Y008910D01*
X009368Y008900D01*
X009456Y008887D01*
X009544Y008869D01*
X009631Y008848D01*
X009717Y008823D01*
X009801Y008795D01*
X009884Y008762D01*
X009966Y008726D01*
X010046Y008687D01*
X010125Y008644D01*
X010201Y008597D01*
X010275Y008548D01*
X010347Y008495D01*
X010417Y008439D01*
X010484Y008380D01*
X010548Y008318D01*
X010610Y008254D01*
X010669Y008187D01*
X010725Y008117D01*
X010778Y008045D01*
X010827Y007971D01*
X010874Y007895D01*
X010917Y007816D01*
X010956Y007736D01*
X010992Y007654D01*
X011025Y007571D01*
X011053Y007487D01*
X011078Y007401D01*
X011099Y007314D01*
X011117Y007226D01*
X011130Y007138D01*
X011140Y007049D01*
X011146Y006960D01*
X011148Y006871D01*
X012428Y007206D02*
X012428Y007363D01*
X011562Y007934D02*
X011528Y007880D01*
X011496Y007823D01*
X011467Y007766D01*
X011441Y007706D01*
X011418Y007646D01*
X011398Y007584D01*
X011381Y007522D01*
X011367Y007458D01*
X011357Y007394D01*
X011350Y007330D01*
X011346Y007265D01*
X012428Y007363D02*
X012430Y007397D01*
X012435Y007430D01*
X012444Y007462D01*
X012457Y007493D01*
X012473Y007523D01*
X012492Y007551D01*
X012514Y007576D01*
X012538Y007599D01*
X012565Y007619D01*
X012594Y007636D01*
X012624Y007650D01*
X012656Y007661D01*
X012689Y007667D01*
X012723Y007671D01*
X012756Y007670D01*
X012790Y007666D01*
X012822Y007659D01*
X013413Y005493D02*
X013341Y005471D01*
X013269Y005451D01*
X013195Y005434D01*
X013121Y005420D01*
X013047Y005409D01*
X012972Y005401D01*
X012897Y005397D01*
X012822Y005395D01*
X012468Y005395D01*
X012468Y005198D02*
X012074Y005198D01*
X012468Y005001D02*
X013314Y005001D01*
X012743Y004608D02*
X012468Y004608D01*
X012074Y005199D02*
X012027Y005189D01*
X011981Y005175D01*
X011936Y005158D01*
X011893Y005137D01*
X011851Y005113D01*
X011811Y005086D01*
X011774Y005056D01*
X011739Y005023D01*
X011706Y004987D01*
X011677Y004949D01*
X011651Y004909D01*
X011627Y004867D01*
X011608Y004823D01*
X011591Y004778D01*
X011578Y004731D01*
X011569Y004684D01*
X011564Y004636D01*
X011562Y004588D01*
X011444Y004312D02*
X011267Y004371D01*
X011129Y004588D01*
X011129Y005415D01*
X010893Y005218D02*
X010597Y005395D01*
X010027Y005395D01*
X010027Y005592D02*
X009377Y005592D01*
X009239Y005454D01*
X009239Y005139D01*
X009554Y004824D01*
X009554Y004312D01*
X009948Y003919D01*
X009948Y003131D01*
X009436Y002619D01*
X008885Y002619D01*
X009475Y003131D02*
X009633Y003289D01*
X009279Y003328D02*
X009633Y003682D01*
X012231Y003210D02*
X012255Y003297D01*
X012277Y003386D01*
X012295Y003474D01*
X012310Y003564D01*
X012309Y003564D02*
X012311Y003595D01*
X012309Y003625D01*
X012303Y003656D01*
X012293Y003685D01*
X012280Y003713D01*
X012264Y003739D01*
X012244Y003763D01*
X012222Y003784D01*
X012198Y003803D01*
X012171Y003818D01*
X012143Y003830D01*
X012113Y003839D01*
X012113Y003840D02*
X011936Y003879D01*
X011739Y003879D02*
X011739Y003426D01*
X011838Y003328D01*
X011542Y003151D02*
X011523Y003131D01*
X011542Y003151D02*
X011542Y003879D01*
X011345Y003879D02*
X011345Y003466D01*
X011168Y003289D01*
X010952Y003426D02*
X010932Y003407D01*
X010952Y003426D02*
X010952Y003879D01*
X010558Y003879D02*
X010558Y003407D01*
X010381Y003407D01*
X010578Y003132D02*
X010607Y003121D01*
X010636Y003115D01*
X010666Y003111D01*
X010697Y003112D01*
X010727Y003115D01*
X010756Y003123D01*
X010784Y003134D01*
X010811Y003148D01*
X010836Y003165D01*
X010859Y003185D01*
X010879Y003207D01*
X010897Y003232D01*
X010911Y003259D01*
X010922Y003287D01*
X010930Y003316D01*
X010934Y003346D01*
X010935Y003377D01*
X010932Y003407D01*
X010578Y003132D02*
X010567Y003144D01*
X010554Y003153D01*
X010539Y003160D01*
X010523Y003163D01*
X010506Y003162D01*
X010491Y003159D01*
X010476Y003152D01*
X010463Y003142D01*
X010453Y003129D01*
X010445Y003115D01*
X010441Y003099D01*
X010440Y003083D01*
X010443Y003067D01*
X010449Y003052D01*
X010458Y003038D01*
X010469Y003027D01*
X010483Y003018D01*
X010499Y003013D01*
X010517Y003014D01*
X010534Y003010D01*
X010550Y003003D01*
X010565Y002994D01*
X010577Y002981D01*
X010587Y002966D01*
X010593Y002950D01*
X010596Y002932D01*
X010595Y002915D01*
X010591Y002897D01*
X010583Y002882D01*
X010573Y002868D01*
X010559Y002856D01*
X010544Y002847D01*
X010527Y002842D01*
X010510Y002840D01*
X010492Y002842D01*
X010475Y002847D01*
X010460Y002855D01*
X010441Y002860D01*
X010422Y002862D01*
X010403Y002860D01*
X010384Y002855D01*
X010367Y002846D01*
X010352Y002834D01*
X010339Y002820D01*
X010329Y002804D01*
X010322Y002786D01*
X010318Y002767D01*
X010318Y002747D01*
X010322Y002728D01*
X010329Y002710D01*
X010339Y002694D01*
X010352Y002680D01*
X010367Y002668D01*
X010384Y002659D01*
X010403Y002654D01*
X010422Y002652D01*
X010441Y002654D01*
X010460Y002659D01*
X010472Y002649D01*
X010481Y002637D01*
X010487Y002622D01*
X010489Y002607D01*
X010488Y002592D01*
X010483Y002577D01*
X010475Y002564D01*
X010464Y002554D01*
X010451Y002546D01*
X010436Y002541D01*
X010421Y002540D01*
X011090Y002462D02*
X011365Y002777D01*
X012231Y003210D01*
X012664Y002797D01*
X012664Y002796D02*
X012685Y002778D01*
X012709Y002763D01*
X012735Y002752D01*
X012761Y002743D01*
X012789Y002739D01*
X012817Y002738D01*
X012845Y002741D01*
X012872Y002748D01*
X012898Y002758D01*
X012922Y002771D01*
X012945Y002788D01*
X012965Y002807D01*
X012982Y002829D01*
X012997Y002854D01*
X013007Y002879D01*
X013015Y002906D01*
X013019Y002934D01*
X013023Y002961D01*
X013030Y002988D01*
X013041Y003013D01*
X013055Y003037D01*
X013071Y003059D01*
X013091Y003079D01*
X013113Y003095D01*
X013137Y003109D01*
X013162Y003120D01*
X013189Y003127D01*
X013216Y003131D01*
X013216Y003132D02*
X013247Y003136D01*
X013277Y003143D01*
X013306Y003155D01*
X013334Y003169D01*
X013359Y003188D01*
X013382Y003209D01*
X013402Y003232D01*
X013420Y003258D01*
X013434Y003286D01*
X013444Y003316D01*
X013451Y003346D01*
X013454Y003377D01*
X013453Y003408D01*
X013448Y003439D01*
X013440Y003469D01*
X013428Y003498D01*
X013413Y003525D01*
X012547Y002305D02*
X012602Y002259D01*
X012660Y002216D01*
X012719Y002176D01*
X012781Y002139D01*
X012844Y002105D01*
X012909Y002074D01*
X012975Y002047D01*
X013043Y002022D01*
X013111Y002001D01*
X013181Y001984D01*
X013251Y001970D01*
X013322Y001959D01*
X013394Y001951D01*
X013466Y001948D01*
X013537Y001947D01*
X013609Y001950D01*
X014476Y000848D02*
X014414Y000803D01*
X014349Y000761D01*
X014283Y000722D01*
X014215Y000687D01*
X014146Y000655D01*
X014075Y000626D01*
X014003Y000601D01*
X013929Y000579D01*
X013855Y000561D01*
X013779Y000546D01*
X013704Y000536D01*
X013627Y000529D01*
X013551Y000525D01*
X013474Y000526D01*
X013398Y000530D01*
X013321Y000538D01*
X013246Y000549D01*
X013171Y000564D01*
X013096Y000583D01*
X013023Y000605D01*
X012951Y000631D01*
X012880Y000661D01*
X012811Y000693D01*
X012743Y000729D01*
X012743Y000730D02*
X012464Y000888D01*
X010420Y002541D02*
X010349Y002491D01*
X010280Y002439D01*
X010213Y002384D01*
X010148Y002326D01*
X010086Y002265D01*
X010145Y003052D02*
X009082Y001950D01*
X008885Y001950D01*
X009475Y003131D02*
X006129Y003131D01*
X005326Y003737D02*
X005326Y004115D01*
X005326Y003738D02*
X005335Y003687D01*
X005347Y003638D01*
X005363Y003590D01*
X005382Y003543D01*
X005405Y003497D01*
X005430Y003453D01*
X005459Y003412D01*
X005491Y003372D01*
X005526Y003335D01*
X005563Y003300D01*
X005602Y003268D01*
X005644Y003239D01*
X005687Y003212D01*
X005733Y003190D01*
X005779Y003170D01*
X005828Y003154D01*
X005877Y003141D01*
X005927Y003132D01*
X005977Y003126D01*
X006028Y003124D01*
X006079Y003126D01*
X006129Y003131D01*
X007326Y003706D02*
X007326Y004115D01*
X007326Y003706D02*
X007336Y003665D01*
X007350Y003625D01*
X007368Y003586D01*
X007388Y003549D01*
X007412Y003514D01*
X007439Y003481D01*
X007469Y003450D01*
X007501Y003423D01*
X007535Y003398D01*
X007571Y003376D01*
X007610Y003358D01*
X007649Y003343D01*
X007690Y003331D01*
X007732Y003323D01*
X007774Y003319D01*
X007816Y003318D01*
X007858Y003321D01*
X007900Y003328D01*
X007901Y003328D02*
X009279Y003328D01*
X008845Y003564D02*
X009082Y003978D01*
X010145Y003997D02*
X010893Y004745D01*
X010893Y005218D01*
X010578Y005060D02*
X010519Y005001D01*
X010027Y005001D01*
X010027Y005198D02*
X009613Y005198D01*
X009515Y005297D01*
X008983Y005001D02*
X009082Y004647D01*
X010145Y003997D02*
X010145Y003052D01*
X011641Y002580D02*
X012113Y002678D01*
X012546Y002304D01*
X012113Y002009D02*
X012034Y001556D01*
X012235Y001516D02*
X011247Y001556D01*
X013609Y002620D02*
X013699Y002588D01*
X013788Y002552D01*
X013876Y002513D01*
X013962Y002471D01*
X014046Y002425D01*
X014128Y002376D01*
X014208Y002323D01*
X014286Y002268D01*
X014362Y002209D01*
X014435Y002147D01*
X014436Y002147D02*
X014465Y002120D01*
X014492Y002089D01*
X014516Y002057D01*
X014536Y002023D01*
X014554Y001987D01*
X014569Y001950D01*
X014580Y001912D01*
X014588Y001872D01*
X014593Y001833D01*
X014594Y001793D01*
X014633Y001241D02*
X014637Y001201D01*
X014638Y001161D01*
X014634Y001120D01*
X014627Y001080D01*
X014616Y001042D01*
X014600Y001004D01*
X014582Y000968D01*
X014560Y000934D01*
X014534Y000903D01*
X014506Y000874D01*
X014475Y000847D01*
X014633Y001241D02*
X014617Y001351D01*
X014605Y001461D01*
X014598Y001571D01*
X014594Y001682D01*
X014593Y001792D01*
X014554Y002540D02*
X014570Y002573D01*
X014582Y002608D01*
X014590Y002643D01*
X014594Y002679D01*
X014595Y002716D01*
X014592Y002752D01*
X014585Y002788D01*
X014574Y002823D01*
X014560Y002857D01*
X014543Y002889D01*
X014522Y002919D01*
X014498Y002946D01*
X014472Y002971D01*
X014443Y002993D01*
X014411Y003012D01*
X014379Y003028D01*
X014344Y003040D01*
X014309Y003049D01*
X014273Y003054D01*
X014236Y003055D01*
X014200Y003052D01*
X014396Y003721D02*
X014378Y003685D01*
X014362Y003646D01*
X014351Y003607D01*
X014343Y003567D01*
X014339Y003526D01*
X014338Y003485D01*
X014342Y003444D01*
X014350Y003403D01*
X014361Y003364D01*
X014376Y003326D01*
X014394Y003289D01*
X014416Y003254D01*
X014441Y003222D01*
X014469Y003191D01*
X014500Y003164D01*
X014533Y003140D01*
X014568Y003119D01*
X014605Y003101D01*
X014644Y003087D01*
X014683Y003077D01*
X014724Y003070D01*
X014765Y003067D01*
X014806Y003068D01*
X014847Y003073D01*
X014887Y003082D01*
X014926Y003094D01*
X014964Y003111D01*
X015000Y003130D01*
X015034Y003153D01*
X015066Y003179D01*
X015095Y003208D01*
X015121Y003240D01*
X015145Y003273D01*
X015165Y003309D01*
X015181Y003347D01*
X015194Y003386D01*
X015203Y003426D01*
X014987Y003603D02*
X015000Y003631D01*
X015016Y003656D01*
X015036Y003680D01*
X015058Y003700D01*
X015082Y003718D01*
X015109Y003733D01*
X015137Y003744D01*
X015166Y003752D01*
X015196Y003756D01*
X015227Y003757D01*
X015257Y003753D01*
X015286Y003746D01*
X015315Y003735D01*
X015341Y003721D01*
X015539Y003919D02*
X015529Y003934D01*
X015522Y003952D01*
X015518Y003970D01*
X015517Y003989D01*
X015520Y004007D01*
X015526Y004025D01*
X015535Y004041D01*
X015547Y004055D01*
X015562Y004067D01*
X015578Y004076D01*
X015893Y004037D02*
X015895Y004000D01*
X015893Y003964D01*
X015887Y003928D01*
X015878Y003893D01*
X015865Y003859D01*
X015848Y003827D01*
X015828Y003796D01*
X015805Y003768D01*
X015779Y003742D01*
X015751Y003719D01*
X015720Y003700D01*
X015688Y003683D01*
X015654Y003670D01*
X015618Y003661D01*
X015582Y003656D01*
X015546Y003654D01*
X015510Y003656D01*
X015474Y003662D01*
X015439Y003672D01*
X015405Y003685D01*
X015372Y003702D01*
X015342Y003722D01*
X014948Y003958D02*
X014751Y003958D01*
X014633Y003565D02*
X014652Y003545D01*
X014674Y003528D01*
X014698Y003514D01*
X014724Y003503D01*
X014751Y003496D01*
X014778Y003492D01*
X014806Y003491D01*
X014834Y003494D01*
X014861Y003501D01*
X014887Y003511D01*
X014911Y003524D01*
X014934Y003540D01*
X014954Y003559D01*
X014972Y003581D01*
X014987Y003604D01*
X015302Y003053D02*
X015328Y003032D01*
X015356Y003013D01*
X015386Y002998D01*
X015417Y002987D01*
X015449Y002978D01*
X015482Y002974D01*
X015516Y002973D01*
X015549Y002976D01*
X015581Y002983D01*
X015613Y002993D01*
X015644Y003006D01*
X015672Y003023D01*
X015699Y003043D01*
X015723Y003066D01*
X015745Y003092D01*
X015764Y003119D01*
X015779Y003149D01*
X015791Y003180D01*
X015800Y003212D01*
X015805Y003245D01*
X015806Y003278D01*
X015803Y003312D01*
X015797Y003344D01*
X015788Y003376D01*
X015774Y003407D01*
X016365Y003525D02*
X016759Y003131D01*
X016785Y003108D01*
X016813Y003087D01*
X016843Y003070D01*
X016875Y003055D01*
X016908Y003044D01*
X016942Y003037D01*
X016976Y003033D01*
X017011Y003032D01*
X017046Y003035D01*
X017080Y003042D01*
X017113Y003052D01*
X017743Y002934D02*
X017940Y003131D01*
X018924Y003131D01*
X018845Y002619D02*
X018334Y002619D01*
X018845Y002619D02*
X018924Y002541D01*
X018334Y001950D02*
X017940Y001950D01*
X017743Y002147D01*
X017743Y002934D01*
X017428Y002737D02*
X017437Y002765D01*
X017442Y002794D01*
X017443Y002823D01*
X017441Y002853D01*
X017435Y002882D01*
X017427Y002909D01*
X017414Y002936D01*
X017399Y002961D01*
X017381Y002984D01*
X017360Y003005D01*
X017337Y003023D01*
X017312Y003038D01*
X017285Y003051D01*
X017258Y003059D01*
X017229Y003065D01*
X017199Y003067D01*
X017170Y003066D01*
X017141Y003061D01*
X017113Y003052D01*
X017350Y003525D02*
X017358Y003559D01*
X017363Y003594D01*
X017364Y003629D01*
X017361Y003664D01*
X017355Y003699D01*
X017346Y003733D01*
X017333Y003765D01*
X017316Y003796D01*
X017297Y003826D01*
X017275Y003853D01*
X017250Y003877D01*
X017223Y003900D01*
X017193Y003919D01*
X017162Y003935D01*
X017129Y003948D01*
X017095Y003957D01*
X017061Y003963D01*
X017026Y003965D01*
X016991Y003964D01*
X016956Y003959D01*
X016955Y003957D02*
X016934Y003955D01*
X016913Y003956D01*
X016892Y003961D01*
X016872Y003969D01*
X016854Y003981D01*
X016838Y003995D01*
X016825Y004012D01*
X016814Y004031D01*
X016807Y004051D01*
X016803Y004072D01*
X016803Y004093D01*
X016807Y004115D01*
X016814Y004135D01*
X016824Y004154D01*
X016837Y004170D01*
X016853Y004185D01*
X016871Y004196D01*
X016891Y004205D01*
X016912Y004210D01*
X016933Y004211D01*
X016955Y004209D01*
X016975Y004203D01*
X016995Y004194D01*
X016995Y004195D02*
X017015Y004174D01*
X017032Y004151D01*
X017046Y004126D01*
X017057Y004100D01*
X017064Y004072D01*
X017068Y004044D01*
X017067Y004015D01*
X017064Y003987D01*
X017056Y003959D01*
X017045Y003933D01*
X017031Y003908D01*
X017013Y003886D01*
X016993Y003865D01*
X016970Y003848D01*
X016945Y003834D01*
X016919Y003823D01*
X016891Y003815D01*
X016863Y003811D01*
X016834Y003811D01*
X016806Y003815D01*
X016778Y003822D01*
X016752Y003833D01*
X016727Y003847D01*
X016704Y003865D01*
X016684Y003885D01*
X016666Y003907D01*
X016652Y003932D01*
X016640Y003958D01*
X016641Y003958D02*
X016632Y003982D01*
X016620Y004004D01*
X016605Y004023D01*
X016587Y004041D01*
X016567Y004056D01*
X016545Y004067D01*
X016521Y004076D01*
X016496Y004081D01*
X016471Y004082D01*
X016447Y004080D01*
X016422Y004074D01*
X016399Y004064D01*
X016377Y004052D01*
X016358Y004036D01*
X016341Y004018D01*
X016326Y003998D01*
X016314Y003982D01*
X016299Y003969D01*
X016282Y003958D01*
X016264Y003950D01*
X016245Y003946D01*
X016226Y003944D01*
X016206Y003946D01*
X016187Y003951D01*
X016169Y003959D01*
X016168Y003958D02*
X016148Y003972D01*
X016131Y003989D01*
X016116Y004009D01*
X016104Y004030D01*
X016095Y004052D01*
X016089Y004076D01*
X016083Y004095D01*
X016074Y004112D01*
X016061Y004127D01*
X016046Y004139D01*
X016029Y004149D01*
X016010Y004154D01*
X015991Y004156D01*
X015971Y004154D01*
X015953Y004148D01*
X015936Y004139D01*
X015920Y004127D01*
X015908Y004112D01*
X015899Y004095D01*
X015893Y004076D01*
X015891Y004057D01*
X015893Y004037D01*
X015696Y004155D02*
X015775Y004273D01*
X015696Y004155D02*
X015682Y004135D01*
X015665Y004117D01*
X015646Y004102D01*
X015625Y004090D01*
X015602Y004081D01*
X015578Y004076D01*
X015421Y004312D02*
X015388Y004305D01*
X015356Y004295D01*
X015325Y004281D01*
X015296Y004264D01*
X015270Y004243D01*
X015245Y004220D01*
X015224Y004194D01*
X015105Y004371D02*
X014948Y004194D01*
X014810Y004293D01*
X014790Y004411D01*
X014790Y004608D01*
X014495Y004706D01*
X014298Y004568D01*
X014160Y004174D01*
X014259Y004174D01*
X014219Y004017D01*
X014101Y003919D01*
X013708Y004115D01*
X013216Y004056D01*
X013058Y003840D01*
X012664Y003604D01*
X012664Y003466D01*
X012664Y003604D02*
X012271Y003997D01*
X012468Y004411D01*
X012054Y004411D01*
X012034Y004391D01*
X011838Y004312D01*
X011444Y004312D01*
X014396Y003722D02*
X014422Y003812D01*
X014443Y003904D01*
X014461Y003997D01*
X014475Y004090D01*
X014486Y004183D01*
X014492Y004277D01*
X014495Y004371D01*
X014947Y003958D02*
X014984Y003969D01*
X015018Y003983D01*
X015052Y004000D01*
X015084Y004021D01*
X015113Y004044D01*
X015141Y004070D01*
X015166Y004098D01*
X015188Y004128D01*
X015207Y004160D01*
X015223Y004194D01*
X015105Y004371D02*
X015086Y004706D01*
X015322Y004726D01*
X015302Y004489D01*
X015381Y004588D01*
X015420Y004312D02*
X015452Y004318D01*
X015483Y004328D01*
X015513Y004341D01*
X015541Y004357D01*
X015567Y004377D01*
X015590Y004399D01*
X015611Y004423D01*
X015630Y004450D01*
X015645Y004479D01*
X015656Y004509D01*
X015657Y004509D02*
X015658Y004542D01*
X015663Y004574D01*
X015671Y004606D01*
X015682Y004637D01*
X015696Y004666D01*
X015550Y004930D02*
X015550Y006253D01*
X015971Y005887D02*
X016267Y005985D01*
X016365Y006084D01*
X016365Y006478D01*
X016916Y006045D02*
X016939Y006041D01*
X016962Y006040D01*
X016985Y006043D01*
X017008Y006049D01*
X017029Y006058D01*
X017049Y006070D01*
X017066Y006084D01*
X017082Y006101D01*
X017095Y006120D01*
X017106Y006141D01*
X017113Y006162D01*
X016916Y006045D02*
X016893Y006048D01*
X016869Y006049D01*
X016845Y006045D01*
X016823Y006038D01*
X016802Y006027D01*
X016782Y006013D01*
X016765Y005997D01*
X016751Y005978D01*
X016740Y005957D01*
X016733Y005934D01*
X016729Y005911D01*
X016728Y005887D01*
X016732Y005864D01*
X016739Y005841D01*
X016749Y005820D01*
X016763Y005801D01*
X016779Y005783D01*
X016798Y005769D01*
X016822Y005752D01*
X016844Y005731D01*
X016863Y005708D01*
X016878Y005683D01*
X016891Y005656D01*
X016900Y005627D01*
X016905Y005598D01*
X016907Y005568D01*
X016905Y005539D01*
X016899Y005510D01*
X016890Y005481D01*
X016877Y005454D01*
X016864Y005426D01*
X016853Y005397D01*
X016847Y005367D01*
X016843Y005336D01*
X016844Y005305D01*
X016847Y005274D01*
X016855Y005244D01*
X016865Y005216D01*
X016879Y005188D01*
X016897Y005162D01*
X016916Y005139D01*
X016917Y005139D02*
X016932Y005120D01*
X016944Y005100D01*
X016953Y005077D01*
X016958Y005054D01*
X016959Y005030D01*
X016957Y005006D01*
X016951Y004983D01*
X016941Y004961D01*
X016928Y004941D01*
X016912Y004923D01*
X016894Y004907D01*
X016874Y004895D01*
X016851Y004886D01*
X016828Y004881D01*
X016804Y004879D01*
X016780Y004881D01*
X016757Y004887D01*
X016735Y004896D01*
X016714Y004908D01*
X016696Y004924D01*
X016681Y004942D01*
X016365Y005494D02*
X016321Y005485D01*
X016278Y005471D01*
X016237Y005454D01*
X016197Y005434D01*
X016159Y005411D01*
X016123Y005384D01*
X016090Y005354D01*
X016059Y005322D01*
X016031Y005287D01*
X016005Y005250D01*
X015984Y005211D01*
X015965Y005170D01*
X015950Y005128D01*
X015939Y005085D01*
X015931Y005041D01*
X015550Y004930D02*
X014227Y004930D01*
X014227Y006253D01*
X014889Y006084D02*
X014891Y006146D01*
X014890Y006208D01*
X014884Y006270D01*
X014875Y006331D01*
X014863Y006391D01*
X014846Y006451D01*
X014826Y006510D01*
X014803Y006567D01*
X014776Y006623D01*
X014746Y006677D01*
X014712Y006729D01*
X014675Y006779D01*
X014636Y006826D01*
X014593Y006871D01*
X014594Y006871D02*
X014397Y007068D01*
X011896Y008249D02*
X011848Y008158D01*
X011804Y008066D01*
X011763Y007972D01*
X011725Y007876D01*
X011690Y007779D01*
X011659Y007682D01*
X011632Y007583D01*
X011608Y007483D01*
X011588Y007382D01*
X011571Y007280D01*
X011559Y007179D01*
X011549Y007076D01*
X011544Y006974D01*
X011542Y006871D01*
X011897Y008249D02*
X011958Y008292D01*
X012022Y008333D01*
X012086Y008371D01*
X012153Y008406D01*
X013019Y008250D02*
X012950Y008248D01*
X012881Y008242D01*
X012812Y008233D01*
X012744Y008220D01*
X012677Y008203D01*
X012610Y008183D01*
X012545Y008159D01*
X012482Y008132D01*
X012419Y008101D01*
X012359Y008067D01*
X012301Y008029D01*
X012244Y007989D01*
X012190Y007946D01*
X012139Y007899D01*
X012090Y007850D01*
X012043Y007799D01*
X012000Y007745D01*
X011960Y007688D01*
X011922Y007630D01*
X011888Y007570D01*
X011857Y007507D01*
X011830Y007444D01*
X011806Y007379D01*
X011786Y007312D01*
X011769Y007245D01*
X011756Y007177D01*
X011747Y007108D01*
X011741Y007039D01*
X011739Y006970D01*
X013412Y006478D02*
X013806Y006084D01*
X013885Y005769D01*
X012822Y006970D02*
X012772Y006938D01*
X012724Y006903D01*
X012678Y006866D01*
X012634Y006826D01*
X012593Y006783D01*
X012554Y006738D01*
X012518Y006690D01*
X012485Y006641D01*
X012455Y006590D01*
X012428Y006537D01*
X012822Y006970D02*
X012875Y006999D01*
X012930Y007024D01*
X012987Y007046D01*
X013044Y007064D01*
X013103Y007078D01*
X013163Y007089D01*
X013223Y007095D01*
X013283Y007098D01*
X013344Y007097D01*
X013404Y007092D01*
X013464Y007083D01*
X013523Y007070D01*
X013581Y007053D01*
X013638Y007033D01*
X013693Y007009D01*
X013747Y006982D01*
X013799Y006951D01*
X013849Y006917D01*
X013897Y006879D01*
X013942Y006839D01*
X013984Y006796D01*
X014024Y006750D01*
X014060Y006702D01*
X014093Y006651D01*
X014123Y006599D01*
X014150Y006544D01*
X014173Y006488D01*
X014192Y006431D01*
X014208Y006373D01*
X014220Y006313D01*
X014227Y006253D01*
X014889Y006084D02*
X014889Y005592D01*
X015932Y005041D02*
X015917Y004994D01*
X015899Y004947D01*
X015878Y004902D01*
X015854Y004858D01*
X015828Y004816D01*
X015798Y004775D01*
X015767Y004737D01*
X015732Y004701D01*
X015696Y004667D01*
X016405Y005021D02*
X016431Y005030D01*
X016459Y005036D01*
X016487Y005038D01*
X016515Y005037D01*
X016542Y005032D01*
X016569Y005025D01*
X016595Y005014D01*
X016619Y005000D01*
X016642Y004983D01*
X016662Y004964D01*
X016680Y004942D01*
X016089Y004824D02*
X016060Y004796D01*
X016033Y004765D01*
X016008Y004733D01*
X015985Y004699D01*
X015965Y004663D01*
X015947Y004626D01*
X015932Y004588D01*
X016089Y004824D02*
X016137Y004864D01*
X016186Y004902D01*
X016238Y004936D01*
X016292Y004968D01*
X016347Y004996D01*
X016404Y005021D01*
X015834Y005533D02*
X015873Y005690D01*
X015971Y005887D01*
X015933Y004587D02*
X015908Y004521D01*
X015879Y004457D01*
X015848Y004394D01*
X015813Y004332D01*
X015776Y004272D01*
X013589Y008918D02*
X013473Y008899D01*
X013357Y008876D01*
X013242Y008850D01*
X013128Y008820D01*
X013014Y008787D01*
X012902Y008751D01*
X012791Y008711D01*
X012681Y008668D01*
X012572Y008622D01*
X012465Y008573D01*
X012359Y008521D01*
X012255Y008465D01*
X012152Y008407D01*
X011247Y008880D02*
X011166Y008905D01*
X011086Y008934D01*
X011007Y008965D01*
X010930Y009000D01*
X010854Y009037D01*
X006129Y006478D02*
X005932Y006281D01*
X005932Y005493D01*
X006424Y005257D02*
X006424Y005198D01*
X006326Y005100D01*
X006424Y005100D01*
X005932Y004804D02*
X005834Y004903D01*
X004751Y004903D01*
X004523Y004674D01*
X004326Y004115D01*
X003176Y003131D02*
X002586Y003131D01*
X003176Y003131D02*
X003373Y002934D01*
X002861Y002619D02*
X004160Y002619D01*
X004160Y001950D02*
X003373Y001950D01*
X002861Y002619D02*
X002586Y002344D01*
X008137Y005513D02*
X008156Y005493D01*
X008137Y006261D02*
X008156Y006281D01*
X008688Y006281D01*
X006523Y006084D02*
X006424Y005926D01*
X003452Y006521D02*
X003373Y006674D01*
X002586Y007068D02*
X002979Y007462D01*
X002979Y008249D01*
X004160Y008249D02*
X004751Y008249D01*
X004160Y008919D02*
X003649Y008919D01*
X003570Y008840D01*
X011759Y005730D02*
X011818Y005789D01*
X011916Y004804D02*
X012468Y004804D01*
X012743Y004607D02*
X012772Y004603D01*
X012800Y004595D01*
X012827Y004583D01*
X012852Y004568D01*
X012875Y004550D01*
X012895Y004529D01*
X012913Y004506D01*
X012927Y004480D01*
X012938Y004453D01*
X012946Y004425D01*
X012950Y004396D01*
X012950Y004366D01*
X012946Y004337D01*
X012938Y004309D01*
X012927Y004282D01*
X012913Y004256D01*
X012895Y004233D01*
X012875Y004212D01*
X012852Y004194D01*
X012827Y004179D01*
X012800Y004167D01*
X012772Y004159D01*
X012743Y004155D01*
X013314Y005001D02*
X013367Y004999D01*
X013420Y004993D01*
X013472Y004984D01*
X013523Y004970D01*
X013574Y004953D01*
X013623Y004932D01*
X013670Y004908D01*
X013715Y004880D01*
X013758Y004850D01*
X013799Y004816D01*
X013838Y004779D01*
X013873Y004739D01*
X013906Y004697D01*
X013935Y004653D01*
X013961Y004607D01*
X013984Y004559D01*
X014003Y004509D01*
X014003Y003643D02*
X014017Y003586D01*
X014027Y003529D01*
X014033Y003470D01*
X014036Y003412D01*
X014035Y003353D01*
X014030Y003294D01*
X014022Y003236D01*
X014009Y003179D01*
X013994Y003122D01*
X013974Y003067D01*
X013952Y003013D01*
X013925Y002960D01*
X013896Y002910D01*
X013863Y002861D01*
X013828Y002814D01*
X013789Y002770D01*
X013748Y002728D01*
X013704Y002689D01*
X013658Y002653D01*
X013609Y002620D01*
X017113Y006163D02*
X017126Y006206D01*
X017143Y006248D01*
X017163Y006288D01*
X017187Y006326D01*
X017214Y006362D01*
X017244Y006395D01*
X017277Y006426D01*
X017312Y006453D01*
X017349Y006478D01*
X017743Y008249D02*
X018334Y008249D01*
X018334Y008919D02*
X019003Y008919D01*
X019121Y009037D01*
D23*
X019121Y009037D03*
X017743Y008249D03*
X012507Y006084D03*
X011759Y005730D03*
X011405Y005454D03*
X010853Y005690D03*
X010578Y005060D03*
X009515Y005297D03*
X008983Y005001D03*
X009180Y005789D03*
X009869Y006478D03*
X008688Y006674D03*
X006129Y006478D03*
X005932Y005493D03*
X005932Y004804D03*
X003570Y004509D03*
X003373Y002934D03*
X003373Y001950D03*
X008845Y003564D03*
X009633Y003682D03*
X009633Y003289D03*
X010381Y003407D03*
X011168Y003289D03*
X011523Y003131D03*
X011838Y003328D03*
X011641Y002580D03*
X011090Y002462D03*
X014003Y003643D03*
X014633Y003564D03*
X015204Y003426D03*
X015302Y003052D03*
X015775Y003407D03*
X015538Y003919D03*
X014751Y003958D03*
X014495Y004371D03*
X014790Y004608D03*
X015381Y004588D03*
X014003Y004509D03*
X012743Y004155D03*
X011562Y004588D03*
X011916Y004804D03*
X013885Y005769D03*
X015834Y005533D03*
X011208Y007856D03*
X004751Y008249D03*
X003570Y008840D03*
X002979Y008249D03*
X014200Y003052D03*
X014554Y002541D03*
X017428Y002737D03*
X018924Y002541D03*
X018924Y003131D03*
D24*
X011995Y008958D02*
X011719Y008919D01*
X011444Y009627D02*
X011247Y009627D01*
X004751Y004903D02*
X004338Y005100D01*
X003668Y005100D02*
X003570Y004509D01*
D25*
X002586Y001556D02*
X002586Y001359D01*
X002588Y001319D01*
X002593Y001280D01*
X002603Y001242D01*
X002616Y001204D01*
X002632Y001168D01*
X002652Y001134D01*
X002675Y001102D01*
X002700Y001072D01*
X002729Y001044D01*
X002760Y001020D01*
X002793Y000998D01*
X002828Y000980D01*
X002865Y000965D01*
X002903Y000953D01*
X002941Y000946D01*
X002981Y000942D01*
X003020Y000941D01*
X003060Y000945D01*
X003099Y000952D01*
X003137Y000963D01*
X003174Y000977D01*
X003209Y000995D01*
X003243Y001016D01*
X003274Y001040D01*
X003303Y001067D01*
X003329Y001096D01*
X003353Y001128D01*
X003373Y001162D01*
X003373Y001163D02*
X003412Y001241D01*
X003413Y001241D02*
X003428Y001267D01*
X003445Y001291D01*
X003465Y001312D01*
X003487Y001332D01*
X003512Y001349D01*
X003538Y001363D01*
X003566Y001373D01*
X003594Y001381D01*
X003623Y001386D01*
X003653Y001387D01*
X003682Y001385D01*
X003712Y001379D01*
X003740Y001371D01*
X003767Y001359D01*
X004160Y001163D01*
X004160Y000966D01*
X004357Y000769D01*
X004554Y000769D01*
X004160Y001163D02*
X004160Y001281D01*
X004948Y001753D02*
X005420Y001281D01*
X005735Y001281D01*
X005932Y000966D01*
X005956Y000931D01*
X005983Y000898D01*
X006013Y000868D01*
X006044Y000841D01*
X006079Y000816D01*
X006115Y000795D01*
X006153Y000776D01*
X006192Y000761D01*
X006233Y000749D01*
X006274Y000741D01*
X006316Y000737D01*
X006358Y000736D01*
X006401Y000739D01*
X006442Y000745D01*
X006483Y000755D01*
X006523Y000769D01*
X006522Y000768D02*
X006565Y000783D01*
X006608Y000794D01*
X006652Y000801D01*
X006697Y000805D01*
X006741Y000805D01*
X006786Y000801D01*
X006830Y000794D01*
X006873Y000783D01*
X006916Y000768D01*
X006916Y000769D02*
X006959Y000754D01*
X007002Y000743D01*
X007046Y000736D01*
X007091Y000732D01*
X007135Y000732D01*
X007180Y000736D01*
X007224Y000743D01*
X007267Y000754D01*
X007310Y000769D01*
X007310Y001281D02*
X008019Y001281D01*
X008097Y001359D01*
X008098Y000769D02*
X008055Y000754D01*
X008012Y000743D01*
X007968Y000736D01*
X007923Y000732D01*
X007879Y000732D01*
X007834Y000736D01*
X007790Y000743D01*
X007747Y000754D01*
X007704Y000769D01*
X008491Y000769D02*
X008525Y000757D01*
X008560Y000750D01*
X008596Y000746D01*
X008632Y000747D01*
X008668Y000751D01*
X008703Y000758D01*
X008737Y000770D01*
X008770Y000785D01*
X008801Y000804D01*
X008829Y000825D01*
X008856Y000850D01*
X008879Y000878D01*
X008900Y000907D01*
X008917Y000939D01*
X008930Y000972D01*
X008940Y001007D01*
X008947Y001042D01*
X008949Y001078D01*
X008948Y001114D01*
X008942Y001150D01*
X008933Y001185D01*
X008921Y001219D01*
X008904Y001251D01*
X008885Y001281D01*
X009357Y001281D01*
X008885Y001281D02*
X008806Y001281D01*
X009357Y001281D02*
X009404Y001283D01*
X009450Y001288D01*
X009496Y001296D01*
X009542Y001307D01*
X009586Y001322D01*
X009630Y001339D01*
X009672Y001360D01*
X010656Y001556D02*
X010656Y000769D01*
X010656Y001556D02*
X011247Y001556D01*
X012034Y001556D01*
X012920Y001556D01*
X012979Y001045D02*
X013609Y001281D01*
X013688Y001359D01*
X014239Y001359D01*
X015184Y001281D02*
X015696Y000769D01*
X015775Y000769D01*
X017743Y000769D01*
X018255Y001281D01*
X018334Y001281D01*
X019042Y001281D01*
X019121Y001359D01*
X019219Y001413D01*
X019121Y001359D02*
X019318Y001556D01*
X019318Y003525D01*
X018137Y003525D01*
X019121Y003919D01*
X018137Y004115D01*
X018255Y004667D01*
X018334Y004509D01*
X018924Y004312D01*
X019121Y004509D01*
X019121Y004903D02*
X018531Y005100D01*
X018334Y004903D01*
X018137Y004903D02*
X018255Y004667D01*
X018137Y004903D02*
X018137Y005493D01*
X018334Y005887D01*
X018924Y005493D01*
X019318Y005297D01*
X019121Y004903D01*
X019318Y005297D02*
X019731Y005100D01*
X019948Y005611D02*
X019987Y005602D01*
X020026Y005589D01*
X020064Y005573D01*
X020099Y005553D01*
X020133Y005530D01*
X020164Y005504D01*
X020193Y005475D01*
X020220Y005444D01*
X020243Y005410D01*
X020263Y005375D01*
X020401Y005100D01*
X019121Y005887D02*
X018924Y005493D01*
X019121Y005887D02*
X018600Y006373D01*
X019121Y006478D01*
X018600Y006373D02*
X018137Y006281D01*
X018727Y007068D01*
X018334Y007265D01*
X018334Y007580D01*
X018649Y007580D01*
X018690Y007582D01*
X018731Y007587D01*
X018771Y007596D01*
X018810Y007608D01*
X018848Y007624D01*
X018885Y007643D01*
X018920Y007665D01*
X018952Y007690D01*
X018983Y007718D01*
X019011Y007749D01*
X019036Y007781D01*
X019058Y007816D01*
X019077Y007853D01*
X019093Y007891D01*
X019105Y007930D01*
X019114Y007970D01*
X019119Y008011D01*
X019121Y008052D01*
X019123Y008099D01*
X019128Y008147D01*
X019137Y008193D01*
X019150Y008239D01*
X019166Y008284D01*
X019186Y008327D01*
X019209Y008369D01*
X019235Y008408D01*
X019264Y008446D01*
X019296Y008481D01*
X019330Y008514D01*
X019367Y008544D01*
X019406Y008571D01*
X019447Y008595D01*
X019490Y008616D01*
X019534Y008633D01*
X019580Y008647D01*
X019626Y008657D01*
X019673Y008664D01*
X019720Y008667D01*
X019768Y008666D01*
X019815Y008662D01*
X019862Y008654D01*
X019908Y008642D01*
X017547Y007659D02*
X017545Y007644D01*
X017541Y007629D01*
X017534Y007615D01*
X017524Y007603D01*
X017512Y007593D01*
X017498Y007586D01*
X017483Y007582D01*
X017468Y007580D01*
X016759Y007580D01*
X016050Y007580D01*
X015971Y007659D01*
X015184Y007580D02*
X015184Y007265D01*
X014987Y007068D01*
X014397Y007068D01*
X015184Y007265D02*
X015381Y007068D01*
X018727Y007068D01*
X019909Y006281D02*
X019876Y006269D01*
X019844Y006253D01*
X019814Y006235D01*
X019786Y006213D01*
X019760Y006189D01*
X019737Y006162D01*
X019717Y006133D01*
X019700Y006102D01*
X019686Y006070D01*
X019676Y006036D01*
X019669Y006001D01*
X019665Y005966D01*
X019666Y005931D01*
X019669Y005896D01*
X019677Y005861D01*
X019688Y005827D01*
X019702Y005795D01*
X019720Y005764D01*
X019740Y005736D01*
X019764Y005709D01*
X019790Y005685D01*
X019818Y005664D01*
X019848Y005646D01*
X019880Y005631D01*
X019914Y005620D01*
X019948Y005612D01*
X019908Y003919D02*
X019712Y003919D01*
X019318Y003525D01*
X017546Y001359D02*
X017468Y001281D01*
X016759Y001281D01*
X019102Y000754D02*
X019515Y000769D01*
X019948Y000768D02*
X019987Y000769D01*
X020025Y000773D01*
X020063Y000781D01*
X020099Y000793D01*
X020135Y000808D01*
X020169Y000826D01*
X020201Y000848D01*
X020230Y000873D01*
X020257Y000900D01*
X020282Y000930D01*
X020303Y000962D01*
X020321Y000996D01*
X020335Y001032D01*
X020346Y001069D01*
X020354Y001107D01*
X020358Y001145D01*
X020358Y001184D01*
X020354Y001222D01*
X020346Y001260D01*
X020335Y001297D01*
X020320Y001333D01*
X020302Y001367D01*
X020281Y001399D01*
X020257Y001429D01*
X020229Y001456D01*
X020200Y001481D01*
X020168Y001502D01*
X020134Y001521D01*
X020098Y001536D01*
X020062Y001547D01*
X020024Y001555D01*
X019986Y001559D01*
X019947Y001560D01*
X019909Y001556D01*
X019948Y000769D02*
X019803Y000773D01*
X019659Y000773D01*
X019514Y000769D01*
X010421Y001556D02*
X010343Y001553D01*
X010265Y001545D01*
X010188Y001534D01*
X010111Y001520D01*
X010035Y001502D01*
X009960Y001480D01*
X009886Y001455D01*
X009813Y001427D01*
X009742Y001395D01*
X009672Y001360D01*
X008491Y000768D02*
X008448Y000783D01*
X008405Y000794D01*
X008361Y000801D01*
X008316Y000805D01*
X008272Y000805D01*
X008227Y000801D01*
X008183Y000794D01*
X008140Y000783D01*
X008097Y000768D01*
X007704Y000768D02*
X007661Y000783D01*
X007618Y000794D01*
X007574Y000801D01*
X007529Y000805D01*
X007485Y000805D01*
X007440Y000801D01*
X007396Y000794D01*
X007353Y000783D01*
X007310Y000768D01*
X004948Y001753D02*
X004948Y002934D01*
X004751Y003131D01*
X003964Y003131D01*
X003176Y003919D01*
X002979Y004312D01*
X002961Y004344D01*
X002941Y004373D01*
X002917Y004401D01*
X002891Y004426D01*
X002862Y004448D01*
X002831Y004468D01*
X002799Y004484D01*
X002765Y004497D01*
X002730Y004506D01*
X002694Y004512D01*
X002658Y004515D01*
X002621Y004514D01*
X002585Y004509D01*
X002586Y004509D02*
X002552Y004505D01*
X002518Y004504D01*
X002485Y004508D01*
X002451Y004515D01*
X002419Y004526D01*
X002389Y004540D01*
X002360Y004558D01*
X002333Y004579D01*
X002309Y004603D01*
X002288Y004629D01*
X002270Y004658D01*
X002255Y004688D01*
X002244Y004720D01*
X002236Y004753D01*
X002232Y004787D01*
X002232Y004821D01*
X002236Y004855D01*
X002244Y004888D01*
X002255Y004920D01*
X002270Y004950D01*
X002288Y004979D01*
X002309Y005005D01*
X002333Y005029D01*
X002360Y005050D01*
X002389Y005068D01*
X002419Y005082D01*
X002451Y005093D01*
X002485Y005100D01*
X002518Y005104D01*
X002552Y005103D01*
X002586Y005099D01*
X002585Y005099D02*
X002621Y005095D01*
X002658Y005094D01*
X002694Y005097D01*
X002730Y005104D01*
X002764Y005115D01*
X002798Y005130D01*
X002829Y005148D01*
X002859Y005169D01*
X002886Y005193D01*
X002910Y005220D01*
X002931Y005250D01*
X002949Y005281D01*
X002964Y005315D01*
X002975Y005349D01*
X002982Y005385D01*
X002985Y005421D01*
X002984Y005458D01*
X002980Y005494D01*
X002980Y005493D02*
X002974Y005535D01*
X002972Y005577D01*
X002974Y005620D01*
X002980Y005662D01*
X002989Y005703D01*
X003002Y005743D01*
X003019Y005782D01*
X003039Y005819D01*
X003063Y005854D01*
X003090Y005887D01*
X003119Y005918D01*
X003151Y005945D01*
X003185Y005970D01*
X003222Y005991D01*
X003260Y006009D01*
X003300Y006024D01*
X003341Y006034D01*
X003383Y006041D01*
X003425Y006045D01*
X003467Y006044D01*
X003509Y006040D01*
X003551Y006032D01*
X003591Y006020D01*
X003631Y006004D01*
X003669Y005985D01*
X003668Y005985D02*
X003373Y006281D01*
X003373Y006674D01*
X003963Y005926D02*
X004003Y005925D01*
X004043Y005927D01*
X004082Y005932D01*
X004121Y005941D01*
X004160Y005952D01*
X004197Y005967D01*
X004232Y005985D01*
X004266Y006006D01*
X004299Y006029D01*
X004329Y006055D01*
X004357Y006084D01*
X004358Y006084D02*
X004380Y006113D01*
X004404Y006139D01*
X004432Y006163D01*
X004461Y006185D01*
X004492Y006204D01*
X004525Y006219D01*
X004559Y006232D01*
X004594Y006241D01*
X004658Y006268D02*
X004650Y006314D01*
X004646Y006360D01*
X004645Y006406D01*
X004648Y006452D01*
X004655Y006498D01*
X004666Y006543D01*
X004680Y006587D01*
X004698Y006630D01*
X004719Y006671D01*
X004744Y006711D01*
X004771Y006748D01*
X004801Y006783D01*
X004835Y006815D01*
X004870Y006845D01*
X004908Y006872D01*
X005519Y006655D02*
X006129Y006950D01*
X006523Y006871D02*
X006541Y006906D01*
X006556Y006942D01*
X006567Y006980D01*
X006575Y007018D01*
X006579Y007057D01*
X006580Y007096D01*
X006576Y007135D01*
X006569Y007174D01*
X006559Y007212D01*
X006545Y007248D01*
X006527Y007283D01*
X006506Y007316D01*
X006483Y007348D01*
X006456Y007376D01*
X006427Y007402D01*
X006395Y007425D01*
X006361Y007445D01*
X006326Y007462D01*
X005735Y007580D02*
X005460Y007580D01*
X005427Y007578D01*
X005395Y007573D01*
X005363Y007565D01*
X005332Y007553D01*
X005303Y007538D01*
X005275Y007520D01*
X005249Y007499D01*
X005226Y007476D01*
X005205Y007450D01*
X005187Y007423D01*
X005172Y007393D01*
X005160Y007362D01*
X005152Y007330D01*
X005147Y007298D01*
X005145Y007265D01*
X005144Y007265D02*
X005139Y007222D01*
X005131Y007179D01*
X005118Y007138D01*
X005103Y007098D01*
X005084Y007059D01*
X005061Y007022D01*
X005036Y006987D01*
X005008Y006954D01*
X004977Y006924D01*
X004944Y006896D01*
X004908Y006871D01*
X005519Y006655D02*
X005395Y006398D01*
X005735Y007580D02*
X005811Y007578D01*
X005886Y007573D01*
X005961Y007563D01*
X006036Y007550D01*
X006110Y007534D01*
X006183Y007513D01*
X006255Y007489D01*
X006325Y007462D01*
X006424Y005926D02*
X006482Y005912D01*
X006540Y005901D01*
X006600Y005893D01*
X006659Y005889D01*
X006719Y005887D01*
X007271Y005887D01*
X007310Y006281D01*
X007309Y006281D02*
X007315Y006321D01*
X007324Y006360D01*
X007337Y006398D01*
X007354Y006434D01*
X007373Y006470D01*
X007396Y006503D01*
X007422Y006534D01*
X007450Y006562D01*
X007481Y006588D01*
X007514Y006611D01*
X007550Y006630D01*
X007586Y006647D01*
X007624Y006660D01*
X007663Y006669D01*
X007703Y006675D01*
X007310Y007068D02*
X007192Y006950D01*
X007310Y007068D02*
X007310Y007580D01*
X008019Y007580D01*
X008097Y007659D01*
X008885Y007580D02*
X009121Y007580D01*
X009357Y007619D02*
X009400Y007632D01*
X009443Y007641D01*
X009487Y007646D01*
X009531Y007648D01*
X009575Y007646D01*
X009619Y007641D01*
X009663Y007632D01*
X009705Y007619D01*
X009746Y007603D01*
X009786Y007583D01*
X009824Y007561D01*
X009860Y007535D01*
X009894Y007506D01*
X009925Y007475D01*
X009954Y007441D01*
X009980Y007405D01*
X010002Y007367D01*
X010022Y007328D01*
X010038Y007286D01*
X010050Y007244D01*
X010060Y007201D01*
X010065Y007157D01*
X010067Y007113D01*
X010065Y007068D01*
X008294Y007226D02*
X008267Y007221D01*
X008241Y007214D01*
X008216Y007203D01*
X008192Y007189D01*
X008170Y007172D01*
X008151Y007153D01*
X008134Y007131D01*
X008120Y007107D01*
X008109Y007082D01*
X008102Y007056D01*
X008097Y007029D01*
X008090Y006991D01*
X008079Y006955D01*
X008065Y006919D01*
X008047Y006885D01*
X008027Y006853D01*
X008003Y006822D01*
X007978Y006794D01*
X007949Y006769D01*
X007919Y006746D01*
X007886Y006726D01*
X007852Y006709D01*
X007816Y006695D01*
X007779Y006685D01*
X007742Y006678D01*
X007704Y006674D01*
X006720Y006478D02*
X006690Y006483D01*
X006660Y006491D01*
X006632Y006504D01*
X006605Y006519D01*
X006581Y006537D01*
X006558Y006558D01*
X006539Y006582D01*
X006522Y006607D01*
X006508Y006635D01*
X006498Y006664D01*
X006491Y006694D01*
X006487Y006724D01*
X006488Y006755D01*
X006491Y006785D01*
X006499Y006815D01*
X006509Y006844D01*
X006523Y006871D01*
X006719Y006478D02*
X006769Y006470D01*
X006818Y006459D01*
X006865Y006445D01*
X006912Y006426D01*
X006957Y006405D01*
X007001Y006380D01*
X007042Y006351D01*
X007081Y006320D01*
X007118Y006286D01*
X007152Y006249D01*
X007183Y006210D01*
X007212Y006169D01*
X007237Y006125D01*
X007258Y006080D01*
X007277Y006033D01*
X007291Y005986D01*
X007302Y005937D01*
X007310Y005887D01*
X007271Y005887D01*
X003452Y006521D02*
X003419Y006571D01*
X003388Y006624D01*
X003361Y006678D01*
X003338Y006734D01*
X003318Y006792D01*
X003301Y006850D01*
X003289Y006910D01*
X003280Y006970D01*
X003275Y007030D01*
X003274Y007091D01*
X003277Y007152D01*
X003284Y007212D01*
X003294Y007272D01*
X003308Y007331D01*
X003326Y007389D01*
X003348Y007446D01*
X003373Y007501D01*
X004160Y007580D02*
X004160Y007068D01*
X004081Y006750D01*
X003964Y005926D02*
X003708Y005946D01*
X003668Y005985D01*
X003176Y003919D02*
X002586Y003919D01*
X010420Y001557D02*
X010538Y001558D01*
X010656Y001557D01*
X012901Y007580D02*
X012822Y007659D01*
X012901Y007580D02*
X013609Y007580D01*
X014318Y007580D01*
X014397Y007659D01*
X009357Y007619D02*
X009311Y007605D01*
X009264Y007594D01*
X009217Y007586D01*
X009169Y007582D01*
X009121Y007580D01*
X008885Y007580D02*
X008848Y007534D01*
X008809Y007491D01*
X008766Y007450D01*
X008721Y007412D01*
X008674Y007377D01*
X008625Y007345D01*
X008573Y007316D01*
X008520Y007291D01*
X008465Y007269D01*
X008409Y007251D01*
X008352Y007237D01*
X008294Y007226D01*
X003413Y008289D02*
X003396Y008329D01*
X003375Y008368D01*
X003352Y008406D01*
X003325Y008441D01*
X003296Y008474D01*
X003264Y008505D01*
X003230Y008533D01*
X003194Y008558D01*
X003156Y008580D01*
X003116Y008599D01*
X003075Y008615D01*
X003032Y008627D01*
X002989Y008636D01*
X002945Y008641D01*
X002901Y008643D01*
X002586Y008643D01*
X003413Y008288D02*
X003433Y008229D01*
X003449Y008169D01*
X003462Y008108D01*
X003470Y008046D01*
X003475Y007984D01*
X003476Y007922D01*
X003473Y007859D01*
X003466Y007797D01*
X003455Y007736D01*
X003440Y007675D01*
X003421Y007616D01*
X003399Y007558D01*
X003373Y007501D01*
D26*
X004160Y007068D03*
X006129Y006950D03*
X007192Y006950D03*
X008097Y007659D03*
X010066Y007068D03*
X012822Y007659D03*
X014397Y007659D03*
X014397Y007068D03*
X015971Y007659D03*
X017546Y007659D03*
X012920Y001556D03*
X012979Y001045D03*
X014239Y001359D03*
X015775Y000769D03*
X017546Y001359D03*
X008097Y001359D03*
X004554Y000769D03*
D27*
X010656Y000769D03*
X011641Y000769D03*
M02*
