G75*
%MOIN*%
%OFA0B0*%
%FSLAX24Y24*%
%IPPOS*%
%LPD*%
%AMOC8*
5,1,8,0,0,1.08239X$1,22.5*
%
%ADD10R,0.0867X0.0513*%
%ADD11R,0.0395X0.0395*%
%ADD12R,0.0710X0.0198*%
%ADD13R,0.0198X0.0710*%
%ADD14OC8,0.0595*%
%ADD15C,0.0680*%
%ADD16R,0.0513X0.0474*%
%ADD17R,0.0631X0.0474*%
%ADD18R,0.0316X0.0434*%
%ADD19R,0.0474X0.0513*%
%ADD20OC8,0.0680*%
%ADD21C,0.0358*%
%ADD22C,0.0437*%
%ADD23C,0.0671*%
D10*
X004160Y001281D03*
X004160Y001950D03*
X004160Y002619D03*
X005735Y002619D03*
X005735Y001950D03*
X005735Y001281D03*
X007310Y001281D03*
X007310Y001950D03*
X007310Y002619D03*
X008885Y002619D03*
X008885Y001950D03*
X008885Y001281D03*
X013609Y001281D03*
X013609Y001950D03*
X013609Y002619D03*
X015184Y002619D03*
X015184Y001950D03*
X015184Y001281D03*
X016759Y001281D03*
X016759Y001950D03*
X016759Y002619D03*
X018334Y002619D03*
X018334Y001950D03*
X018334Y001281D03*
X018334Y007580D03*
X018334Y008249D03*
X018334Y008919D03*
X016759Y008919D03*
X016759Y008249D03*
X016759Y007580D03*
X015184Y007580D03*
X015184Y008249D03*
X015184Y008919D03*
X013609Y008919D03*
X013609Y008249D03*
X013609Y007580D03*
X008885Y007580D03*
X008885Y008249D03*
X008885Y008919D03*
X007310Y008919D03*
X007310Y008249D03*
X007310Y007580D03*
X005735Y007580D03*
X005735Y008249D03*
X005735Y008919D03*
X004160Y008919D03*
X004160Y008249D03*
X004160Y007580D03*
D11*
G36*
X014227Y006531D02*
X014505Y006253D01*
X014227Y005975D01*
X013949Y006253D01*
X014227Y006531D01*
G37*
G36*
X015828Y006253D02*
X015550Y005975D01*
X015272Y006253D01*
X015550Y006531D01*
X015828Y006253D01*
G37*
G36*
X015411Y005836D02*
X015133Y005558D01*
X014855Y005836D01*
X015133Y006114D01*
X015411Y005836D01*
G37*
G36*
X014645Y006114D02*
X014923Y005836D01*
X014645Y005558D01*
X014367Y005836D01*
X014645Y006114D01*
G37*
G36*
X014367Y005348D02*
X014645Y005626D01*
X014923Y005348D01*
X014645Y005070D01*
X014367Y005348D01*
G37*
G36*
X013949Y004930D02*
X014227Y005208D01*
X014505Y004930D01*
X014227Y004652D01*
X013949Y004930D01*
G37*
G36*
X015133Y005070D02*
X014855Y005348D01*
X015133Y005626D01*
X015411Y005348D01*
X015133Y005070D01*
G37*
G36*
X015550Y004652D02*
X015272Y004930D01*
X015550Y005208D01*
X015828Y004930D01*
X015550Y004652D01*
G37*
D12*
X012468Y004608D03*
X012468Y004804D03*
X012468Y005001D03*
X012468Y005198D03*
X012468Y005395D03*
X012468Y005592D03*
X012468Y005789D03*
X010027Y005789D03*
X010027Y005592D03*
X010027Y005395D03*
X010027Y005198D03*
X010027Y005001D03*
X010027Y004804D03*
X010027Y004608D03*
X010027Y004411D03*
X012468Y004411D03*
D13*
X011936Y003879D03*
X011739Y003879D03*
X011542Y003879D03*
X011345Y003879D03*
X011149Y003879D03*
X010952Y003879D03*
X010755Y003879D03*
X010558Y003879D03*
X010558Y006320D03*
X010755Y006320D03*
X010952Y006320D03*
X011149Y006320D03*
X011345Y006320D03*
X011542Y006320D03*
X011739Y006320D03*
X011936Y006320D03*
D14*
X002586Y001556D03*
X002586Y002344D03*
X002586Y003131D03*
X002586Y003919D03*
X002586Y006281D03*
X002586Y007068D03*
X002586Y007856D03*
X002586Y008643D03*
X019908Y008643D03*
X019908Y007856D03*
X019908Y007068D03*
X019908Y006281D03*
X019908Y003919D03*
X019908Y003131D03*
X019908Y002344D03*
X019908Y001556D03*
D15*
X008326Y003815D02*
X008326Y004415D01*
X007326Y004415D02*
X007326Y003815D01*
X006326Y003815D02*
X006326Y004415D01*
X005326Y004415D02*
X005326Y003815D01*
X004326Y003815D02*
X004326Y004415D01*
D16*
G36*
X003773Y006386D02*
X003293Y006211D01*
X003131Y006656D01*
X003611Y006831D01*
X003773Y006386D01*
G37*
G36*
X004402Y006615D02*
X003922Y006440D01*
X003760Y006885D01*
X004240Y007060D01*
X004402Y006615D01*
G37*
G36*
X009390Y006254D02*
X009029Y005893D01*
X008694Y006228D01*
X009055Y006589D01*
X009390Y006254D01*
G37*
G36*
X009863Y006727D02*
X009502Y006366D01*
X009167Y006701D01*
X009528Y007062D01*
X009863Y006727D01*
G37*
X012428Y006537D03*
X012428Y007206D03*
X019731Y005100D03*
X020401Y005100D03*
G36*
X018942Y001203D02*
X019031Y001706D01*
X019496Y001623D01*
X019407Y001120D01*
X018942Y001203D01*
G37*
G36*
X018825Y000544D02*
X018914Y001047D01*
X019379Y000964D01*
X019290Y000461D01*
X018825Y000544D01*
G37*
X012113Y002009D03*
X012113Y002678D03*
D17*
X008137Y005513D03*
X007271Y005887D03*
X008137Y006261D03*
D18*
G36*
X005359Y005692D02*
X005669Y005747D01*
X005745Y005320D01*
X005435Y005265D01*
X005359Y005692D01*
G37*
G36*
X004991Y005627D02*
X005301Y005682D01*
X005377Y005255D01*
X005067Y005200D01*
X004991Y005627D01*
G37*
G36*
X004623Y005562D02*
X004933Y005617D01*
X005009Y005190D01*
X004699Y005135D01*
X004623Y005562D01*
G37*
G36*
X004465Y006454D02*
X004775Y006509D01*
X004851Y006082D01*
X004541Y006027D01*
X004465Y006454D01*
G37*
G36*
X004834Y006519D02*
X005144Y006574D01*
X005220Y006147D01*
X004910Y006092D01*
X004834Y006519D01*
G37*
G36*
X005202Y006584D02*
X005512Y006639D01*
X005588Y006212D01*
X005278Y006157D01*
X005202Y006584D01*
G37*
D19*
X006424Y005926D03*
X006424Y005257D03*
X004338Y005100D03*
X003668Y005100D03*
X009082Y004647D03*
X009082Y003978D03*
X012664Y003466D03*
X012664Y002797D03*
G36*
X012394Y001826D02*
X012556Y001381D01*
X012076Y001206D01*
X011914Y001651D01*
X012394Y001826D01*
G37*
G36*
X012623Y001198D02*
X012785Y000753D01*
X012305Y000578D01*
X012143Y001023D01*
X012623Y001198D01*
G37*
X011897Y008249D03*
X011227Y008249D03*
G36*
X012391Y008647D02*
X012229Y009092D01*
X012709Y009267D01*
X012871Y008822D01*
X012391Y008647D01*
G37*
G36*
X012620Y008018D02*
X012458Y008463D01*
X012938Y008638D01*
X013100Y008193D01*
X012620Y008018D01*
G37*
D20*
X010853Y009037D03*
X013412Y006478D03*
X013412Y005493D03*
X013412Y004509D03*
X013412Y003525D03*
X016365Y003525D03*
X017349Y003525D03*
X017349Y004509D03*
X016365Y004509D03*
X016365Y005493D03*
X017349Y005493D03*
X017349Y006478D03*
X016365Y006478D03*
X010086Y002265D03*
D21*
X011090Y002462D03*
X011641Y002580D03*
X011523Y003131D03*
X011838Y003328D03*
X011168Y003289D03*
X010381Y003407D03*
X009633Y003289D03*
X009633Y003682D03*
X008845Y003564D03*
X011562Y004588D03*
X011916Y004804D03*
X010578Y005060D03*
X011405Y005454D03*
X011759Y005730D03*
X012507Y006084D03*
X013885Y005769D03*
X015834Y005533D03*
X015381Y004588D03*
X014790Y004608D03*
X014495Y004371D03*
X014003Y004509D03*
X014751Y003958D03*
X014003Y003643D03*
X014633Y003564D03*
X015204Y003426D03*
X015302Y003052D03*
X015775Y003407D03*
X015538Y003919D03*
X014200Y003052D03*
X014554Y002541D03*
X017428Y002737D03*
X018924Y002541D03*
X018924Y003131D03*
X012743Y004155D03*
X009515Y005297D03*
X008983Y005001D03*
X009180Y005789D03*
X009869Y006478D03*
X008688Y006674D03*
X010853Y005690D03*
X011208Y007856D03*
X006129Y006478D03*
X005932Y005493D03*
X005932Y004804D03*
X003570Y004509D03*
X003373Y002934D03*
X003373Y001950D03*
X002979Y008249D03*
X003570Y008840D03*
X004751Y008249D03*
X017743Y008249D03*
X019121Y009037D03*
D22*
X017546Y007659D03*
X015971Y007659D03*
X014397Y007659D03*
X014397Y007068D03*
X012822Y007659D03*
X010066Y007068D03*
X008097Y007659D03*
X007192Y006950D03*
X006129Y006950D03*
X004160Y007068D03*
X012920Y001556D03*
X012979Y001045D03*
X014239Y001359D03*
X015775Y000769D03*
X017546Y001359D03*
X008097Y001359D03*
X004554Y000769D03*
D23*
X010656Y000769D03*
X011641Y000769D03*
M02*
