G75*
%MOIN*%
%OFA0B0*%
%FSLAX24Y24*%
%IPPOS*%
%LPD*%
%AMOC8*
5,1,8,0,0,1.08239X$1,22.5*
%
%ADD10C,0.0040*%
%ADD11C,0.0410*%
%ADD12C,0.0400*%
%ADD13C,0.0110*%
%ADD14C,0.0050*%
D10*
X010066Y001336D02*
X010066Y001643D01*
X010373Y001643D02*
X010373Y001336D01*
X010219Y001183D01*
X010066Y001336D01*
X010526Y001259D02*
X010603Y001183D01*
X010757Y001183D01*
X010833Y001259D01*
X011180Y001259D02*
X011180Y001566D01*
X011257Y001643D01*
X011487Y001643D01*
X011487Y001183D01*
X011257Y001183D01*
X011180Y001259D01*
X010833Y001413D02*
X010680Y001490D01*
X010603Y001490D01*
X010526Y001413D01*
X010526Y001259D01*
X010833Y001413D02*
X010833Y001643D01*
X010526Y001643D01*
X011641Y001643D02*
X011641Y001183D01*
X011948Y001643D01*
X011948Y001183D01*
X012101Y001259D02*
X012101Y001413D01*
X012255Y001413D01*
X012408Y001566D02*
X012408Y001259D01*
X012331Y001183D01*
X012178Y001183D01*
X012101Y001259D01*
X012101Y001566D02*
X012178Y001643D01*
X012331Y001643D01*
X012408Y001566D01*
X003470Y005754D02*
X003399Y005670D01*
X003348Y005665D01*
X003235Y005760D01*
X003231Y005811D01*
X003301Y005896D01*
X003470Y005754D01*
X003530Y005825D02*
X003361Y005966D01*
X003455Y006079D02*
X003530Y005825D01*
X003624Y005937D02*
X003455Y006079D01*
X003543Y006126D02*
X003538Y006178D01*
X003586Y006234D01*
X003637Y006239D01*
X003750Y006144D01*
X003754Y006093D01*
X003707Y006036D01*
X003655Y006032D01*
X003599Y006079D01*
X003646Y006135D01*
X003148Y005712D02*
X003077Y005628D01*
X003081Y005576D01*
X003194Y005482D01*
X003246Y005486D01*
X003316Y005571D01*
X003148Y005712D01*
D11*
X003265Y007076D02*
X003265Y009208D01*
X004686Y009208D02*
X003265Y007076D01*
X004686Y007076D02*
X004686Y009208D01*
X005604Y008853D02*
X005959Y009208D01*
X006670Y009208D01*
X007025Y008853D01*
X007025Y007432D01*
X006670Y007076D01*
X005959Y007076D01*
X005604Y007432D01*
X005604Y008853D01*
X007943Y008853D02*
X007943Y008142D01*
X008298Y007787D01*
X009364Y007787D01*
X008653Y007787D02*
X007943Y007076D01*
X009364Y007076D02*
X009364Y009208D01*
X008298Y009208D01*
X007943Y008853D01*
X010282Y009208D02*
X011703Y009208D01*
X010992Y009208D02*
X010992Y007076D01*
X012620Y007076D02*
X012620Y008498D01*
X013331Y009208D01*
X014042Y008498D01*
X014042Y007076D01*
X014959Y008142D02*
X015315Y007787D01*
X016380Y007787D01*
X017298Y008142D02*
X018719Y008142D01*
X018719Y008498D02*
X018009Y009208D01*
X017298Y008498D01*
X017298Y007076D01*
X016380Y007076D02*
X016380Y009208D01*
X015315Y009208D01*
X014959Y008853D01*
X014959Y008142D01*
X014042Y008142D02*
X012620Y008142D01*
X018719Y008498D02*
X018719Y007076D01*
D12*
X010853Y005297D02*
X009869Y004312D01*
X010853Y005297D02*
X009869Y006281D01*
X010853Y005297D02*
X003373Y005297D01*
X015381Y002344D02*
X018334Y002344D01*
X017743Y001753D01*
X018334Y002344D02*
X017743Y002934D01*
D13*
X018771Y004205D02*
X018673Y004304D01*
X018673Y004501D01*
X018771Y004599D01*
X019165Y004599D01*
X019263Y004501D01*
X019263Y004304D01*
X019165Y004205D01*
X018771Y004205D01*
X018771Y004850D02*
X018673Y004948D01*
X018673Y005145D01*
X018771Y005243D01*
X019263Y005243D01*
X019263Y005494D02*
X019263Y005888D01*
X019263Y005691D02*
X018673Y005691D01*
X018771Y004850D02*
X019263Y004850D01*
X002925Y004671D02*
X002925Y004868D01*
X002925Y004769D02*
X002334Y004769D01*
X002334Y004671D02*
X002334Y004868D01*
X002334Y005101D02*
X002925Y005101D01*
X002334Y005494D01*
X002925Y005494D01*
D14*
X003289Y001305D02*
X003321Y001273D01*
X003448Y001401D01*
X003416Y001432D02*
X003353Y001432D01*
X003289Y001369D01*
X003289Y001305D01*
X003416Y001241D02*
X003480Y001305D01*
X003480Y001369D01*
X003416Y001432D01*
X003463Y001542D02*
X003495Y001574D01*
X003622Y001574D01*
X003686Y001511D02*
X003558Y001638D01*
X003671Y001687D02*
X003671Y001751D01*
X003735Y001814D01*
X003798Y001814D01*
X003862Y001751D01*
X003862Y001687D01*
X003798Y001623D01*
X003735Y001623D01*
X003671Y001687D01*
X003879Y001895D02*
X003975Y001800D01*
X004039Y001864D02*
X003943Y001959D01*
X003879Y001959D01*
X003879Y001895D01*
X003943Y001959D02*
X003943Y002023D01*
X003975Y002055D01*
X004102Y001927D01*
X004249Y001827D02*
X004440Y001636D01*
X004516Y001711D02*
X004516Y001774D01*
X004388Y001902D01*
X004452Y001902D02*
X004388Y001838D01*
X004345Y001731D02*
X004281Y001731D01*
X004218Y001667D01*
X004218Y001604D01*
X004313Y001508D01*
X004232Y001427D02*
X004168Y001363D01*
X004200Y001395D02*
X004073Y001523D01*
X004105Y001555D01*
X004009Y001586D02*
X003977Y001618D01*
X003966Y001416D02*
X003870Y001320D01*
X003870Y001256D01*
X003966Y001161D01*
X003853Y001112D02*
X003853Y001048D01*
X003758Y000953D01*
X003789Y000921D02*
X003630Y001080D01*
X003726Y001175D01*
X003789Y001175D01*
X003853Y001112D01*
X003885Y000953D02*
X003853Y000921D01*
X003789Y000921D01*
X003677Y000872D02*
X003581Y000776D01*
X003517Y000776D01*
X003517Y000840D01*
X003581Y000903D01*
X003581Y000967D01*
X003517Y000967D01*
X003422Y000872D01*
X003966Y001416D02*
X004093Y001288D01*
X004869Y002064D02*
X004964Y002159D01*
X004964Y002223D01*
X004869Y002319D01*
X004912Y002489D02*
X005103Y002298D01*
X005135Y002330D02*
X005071Y002266D01*
X005210Y002405D02*
X005274Y002469D01*
X005242Y002437D02*
X005051Y002628D01*
X005083Y002660D01*
X005190Y002767D02*
X005158Y002799D01*
X005254Y002703D02*
X005381Y002576D01*
X005413Y002608D02*
X005349Y002544D01*
X005254Y002703D02*
X005285Y002735D01*
X005366Y002816D02*
X005462Y002912D01*
X005526Y002912D01*
X005526Y002848D01*
X005462Y002784D01*
X005462Y002721D01*
X005526Y002721D01*
X005621Y002816D01*
X005109Y002934D02*
X004918Y003125D01*
X004918Y002998D01*
X004791Y002998D01*
X004982Y002807D01*
X004869Y002758D02*
X004869Y002694D01*
X004774Y002599D01*
X004678Y002694D01*
X004678Y002758D01*
X004742Y002821D01*
X004805Y002758D02*
X004710Y002662D01*
X004629Y002581D02*
X004470Y002549D01*
X004423Y002440D02*
X004360Y002440D01*
X004296Y002376D01*
X004296Y002312D01*
X004328Y002280D01*
X004455Y002408D01*
X004487Y002376D02*
X004423Y002440D01*
X004487Y002376D02*
X004487Y002312D01*
X004423Y002248D01*
X004597Y002422D02*
X004629Y002581D01*
X004693Y002518D02*
X004502Y002709D01*
X004805Y002758D02*
X004869Y002758D01*
X004944Y002521D02*
X004912Y002489D01*
X004741Y002191D02*
X004901Y002032D01*
X004964Y002032D01*
X004996Y002064D01*
X007143Y002621D02*
X007165Y002660D01*
X007210Y002738D02*
X007301Y002894D01*
X007371Y002698D02*
X007488Y002630D01*
X007533Y002708D02*
X007398Y002474D01*
X007281Y002542D01*
X007265Y002603D01*
X007310Y002681D01*
X007371Y002698D01*
X007587Y002573D02*
X007497Y002417D01*
X007614Y002349D01*
X007676Y002366D01*
X007743Y002483D01*
X007820Y002386D02*
X007752Y002269D01*
X007820Y002386D02*
X007882Y002403D01*
X007960Y002358D01*
X007976Y002296D01*
X008091Y002282D02*
X008169Y002237D01*
X008152Y002299D02*
X008062Y002143D01*
X008001Y002126D01*
X007908Y002179D02*
X008044Y002413D01*
X008148Y002595D02*
X008239Y002751D01*
X008200Y002774D01*
X008138Y002757D01*
X008122Y002819D01*
X008060Y002802D01*
X007992Y002685D01*
X008070Y002640D02*
X008138Y002757D01*
X007961Y002859D02*
X007944Y002921D01*
X007866Y002966D01*
X007805Y002949D01*
X007782Y002910D01*
X007938Y002820D01*
X007916Y002781D02*
X007961Y002859D01*
X007916Y002781D02*
X007854Y002765D01*
X007776Y002810D01*
X008499Y002393D02*
X008661Y002403D01*
X008589Y002549D01*
X008751Y002559D02*
X008616Y002325D01*
X008802Y002426D02*
X008841Y002403D01*
X008874Y002280D01*
X008829Y002202D02*
X008919Y002358D01*
X008996Y002262D02*
X009057Y002278D01*
X009135Y002233D01*
X009152Y002172D01*
X009107Y002094D01*
X009045Y002077D01*
X008967Y002122D01*
X008951Y002184D01*
X008996Y002262D01*
X009244Y002119D02*
X009322Y002074D01*
X009328Y002174D02*
X009215Y001979D01*
X009328Y002174D02*
X009311Y002236D01*
X008555Y002014D02*
X008571Y001953D01*
X008526Y001875D01*
X008465Y001858D01*
X008348Y001926D01*
X008325Y001887D02*
X008438Y002082D01*
X008555Y002014D01*
X008339Y002139D02*
X008300Y002161D01*
X008210Y002005D01*
X008249Y001983D02*
X008171Y002028D01*
X008325Y001887D02*
X008342Y001825D01*
X008381Y001803D01*
X008858Y001631D02*
X008926Y001748D01*
X008987Y001765D01*
X009104Y001697D01*
X009014Y001541D01*
X009136Y001523D02*
X009181Y001601D01*
X009242Y001617D01*
X009320Y001572D01*
X009337Y001511D01*
X009292Y001433D01*
X009230Y001416D01*
X009152Y001461D01*
X009136Y001523D01*
X008345Y002239D02*
X008367Y002278D01*
X009977Y003629D02*
X010022Y003674D01*
X010022Y003854D01*
X010067Y003809D02*
X009977Y003809D01*
X010181Y003809D02*
X010361Y003629D01*
X010476Y003719D02*
X010656Y003719D01*
X010656Y003764D02*
X010611Y003809D01*
X010521Y003809D01*
X010476Y003764D01*
X010476Y003719D01*
X010521Y003629D02*
X010611Y003629D01*
X010656Y003674D01*
X010656Y003764D01*
X010861Y003629D02*
X010861Y003899D01*
X010951Y003899D02*
X010770Y003899D01*
X010361Y003809D02*
X010181Y003629D01*
X011360Y003719D02*
X011540Y003719D01*
X011540Y003764D02*
X011495Y003809D01*
X011405Y003809D01*
X011360Y003764D01*
X011360Y003719D01*
X011405Y003629D02*
X011495Y003629D01*
X011540Y003674D01*
X011540Y003764D01*
X011646Y003629D02*
X011736Y003629D01*
X011691Y003629D02*
X011691Y003899D01*
X011736Y003899D01*
X011851Y003764D02*
X011896Y003809D01*
X012031Y003809D01*
X012031Y003539D01*
X012031Y003629D02*
X011896Y003629D01*
X011851Y003674D01*
X011851Y003764D01*
X012146Y003764D02*
X012146Y003629D01*
X012236Y003629D02*
X012236Y003764D01*
X012191Y003809D01*
X012146Y003764D01*
X012236Y003764D02*
X012281Y003809D01*
X012326Y003809D01*
X012326Y003629D01*
X012440Y003629D02*
X012440Y003764D01*
X012485Y003809D01*
X012575Y003809D01*
X012575Y003719D02*
X012440Y003719D01*
X012440Y003629D02*
X012575Y003629D01*
X012620Y003674D01*
X012575Y003719D01*
X012735Y003719D02*
X012735Y003674D01*
X012780Y003629D01*
X012870Y003629D01*
X012915Y003674D01*
X012870Y003764D02*
X012780Y003764D01*
X012735Y003719D01*
X012735Y003854D02*
X012780Y003899D01*
X012870Y003899D01*
X012915Y003854D01*
X012915Y003809D01*
X012870Y003764D01*
X008860Y005873D02*
X008860Y006143D01*
X008770Y006053D01*
X008680Y006143D01*
X008680Y005873D01*
X008565Y005918D02*
X008520Y005963D01*
X008385Y005963D01*
X008385Y006008D02*
X008385Y005873D01*
X008520Y005873D01*
X008565Y005918D01*
X008520Y006053D02*
X008430Y006053D01*
X008385Y006008D01*
X008271Y006008D02*
X008271Y005918D01*
X008226Y005873D01*
X008090Y005873D01*
X008090Y006143D01*
X008090Y006053D02*
X008226Y006053D01*
X008271Y006008D01*
X007976Y006008D02*
X007976Y005918D01*
X007931Y005873D01*
X007841Y005873D01*
X007796Y005963D02*
X007976Y005963D01*
X007976Y006008D02*
X007931Y006053D01*
X007841Y006053D01*
X007796Y006008D01*
X007796Y005963D01*
X007387Y006053D02*
X007251Y006053D01*
X007206Y006008D01*
X007206Y005918D01*
X007251Y005873D01*
X007387Y005873D01*
X007387Y006143D01*
X007092Y006053D02*
X007092Y005918D01*
X007047Y005873D01*
X006912Y005873D01*
X006912Y005828D02*
X006957Y005783D01*
X007002Y005783D01*
X006912Y005828D02*
X006912Y006053D01*
X006503Y006143D02*
X006503Y005873D01*
X006368Y005873D01*
X006322Y005918D01*
X006322Y006098D01*
X006368Y006143D01*
X006503Y006143D01*
X006208Y006053D02*
X006208Y005873D01*
X006208Y005963D02*
X006118Y006053D01*
X006073Y006053D01*
X005962Y006143D02*
X005962Y005873D01*
X005782Y005873D01*
X005668Y005918D02*
X005623Y005873D01*
X005488Y005873D01*
X005488Y006053D01*
X005373Y006143D02*
X005373Y005873D01*
X005373Y005963D02*
X005238Y005873D01*
X005128Y005918D02*
X005128Y006008D01*
X005083Y006053D01*
X004992Y006053D01*
X004947Y006008D01*
X004947Y005963D01*
X005128Y005963D01*
X005128Y005918D02*
X005083Y005873D01*
X004992Y005873D01*
X005238Y006053D02*
X005373Y005963D01*
X005668Y005918D02*
X005668Y006053D01*
X004642Y006334D02*
X004573Y006276D01*
X004509Y006281D01*
X004480Y006316D01*
X004486Y006379D01*
X004521Y006408D01*
X004486Y006379D02*
X004423Y006385D01*
X004394Y006419D01*
X004399Y006483D01*
X004468Y006541D01*
X004532Y006535D01*
X004647Y006397D02*
X004642Y006334D01*
X004393Y006242D02*
X004382Y006115D01*
X004255Y006126D01*
X004139Y006264D01*
X004080Y006156D02*
X004017Y006162D01*
X003948Y006104D01*
X003942Y006040D01*
X003971Y006006D01*
X004035Y006000D01*
X004029Y005937D01*
X004058Y005902D01*
X004121Y005897D01*
X004190Y005955D01*
X004196Y006018D01*
X004069Y006029D02*
X004035Y006000D01*
X004393Y006242D02*
X004277Y006380D01*
M02*
